<svg width="100" height="82" viewBox="0 0 100 82" fill="none" xmlns="http://www.w3.org/2000/svg">
<path d="M6.24999 9.875C6.24999 7.3886 7.23771 5.00403 8.99586 3.24587C10.754 1.48772 13.1386 0.5 15.625 0.5H32.9C38.8875 0.5 43.9 4 47.3437 7.9C49.9062 10.8 53 13 56.25 13H84.375C86.8614 13 89.246 13.9877 91.0041 15.7459C92.7623 17.504 93.75 19.8886 93.75 22.375V26.375C97.3125 28.0312 99.625 31.85 99.1 36.0375L95.1 68.0625C94.6274 71.844 92.7892 75.3225 89.9311 77.8433C87.073 80.3641 83.3922 81.7535 79.5812 81.75H20.4125C16.6037 81.7505 12.9259 80.3597 10.0705 77.8391C7.21501 75.3186 5.37853 71.8419 4.90624 68.0625L0.906237 36.0375C0.659819 34.0687 1.04442 32.0724 2.00469 30.3361C2.96496 28.5997 4.45137 27.2128 6.24999 26.375V9.875ZM12.5 25.5H87.5V22.375C87.5 21.5462 87.1707 20.7513 86.5847 20.1653C85.9986 19.5792 85.2038 19.25 84.375 19.25H56.25C50.225 19.25 45.5625 15.3187 42.6625 12.0375C39.8375 8.8375 36.375 6.75 32.9 6.75H15.625C14.7962 6.75 14.0013 7.07924 13.4153 7.66529C12.8292 8.25134 12.5 9.0462 12.5 9.875V25.5ZM10.2062 31.75C9.76322 31.7501 9.32528 31.8444 8.92149 32.0267C8.5177 32.209 8.15727 32.475 7.86412 32.8072C7.57097 33.1393 7.35179 33.53 7.22113 33.9533C7.09047 34.3766 7.0513 34.8229 7.10624 35.2625L11.1062 67.2875C11.3897 69.5556 12.4919 71.6419 14.2057 73.1543C15.9195 74.6667 18.1268 75.5009 20.4125 75.5H79.5875C81.8732 75.5009 84.0805 74.6667 85.7943 73.1543C87.5081 71.6419 88.6103 69.5556 88.8937 67.2875L92.8937 35.2625C92.9487 34.8229 92.9095 34.3766 92.7788 33.9533C92.6482 33.53 92.429 33.1393 92.1358 32.8072C91.8427 32.475 91.4823 32.209 91.0785 32.0267C90.6747 31.8444 90.2367 31.7501 89.7937 31.75H10.2062Z" fill="#718096"/>
</svg>
