<svg width="153" height="192" viewBox="0 0 153 192" fill="none" xmlns="http://www.w3.org/2000/svg">
<path d="M125 -24.5015C189.327 -24.5015 242.389 23.3685 250 85.1759H188.991C182.045 56.4918 156.03 35.1759 125 35.1759C93.9696 35.1759 67.9551 56.4918 61.0085 85.1759H0C7.61109 23.3685 60.6734 -24.5015 125 -24.5015Z" fill="url(#paint0_linear_1209_530)"/>
<path d="M188.991 115.821H250C242.389 177.629 189.327 225.499 125 225.499C60.6734 225.499 7.61109 177.629 0 115.821H61.0085C67.9551 144.505 93.9696 165.821 125 165.821C156.03 165.821 182.045 144.505 188.991 115.821Z" fill="url(#paint1_linear_1209_530)"/>
<path d="M125 141.628C147.885 141.628 166.437 123.213 166.437 100.499C166.437 77.7836 147.885 59.3695 125 59.3695C102.115 59.3695 83.5628 77.7836 83.5628 100.499C83.5628 123.213 102.115 141.628 125 141.628Z" fill="url(#paint2_linear_1209_530)"/>
<defs>
<linearGradient id="paint0_linear_1209_530" x1="125" y1="-24.5015" x2="125" y2="225.499" gradientUnits="userSpaceOnUse">
<stop stop-color="white" stop-opacity="0.3"/>
<stop offset="1" stop-color="white" stop-opacity="0"/>
</linearGradient>
<linearGradient id="paint1_linear_1209_530" x1="125" y1="-24.5015" x2="125" y2="225.499" gradientUnits="userSpaceOnUse">
<stop stop-color="white" stop-opacity="0.3"/>
<stop offset="1" stop-color="white" stop-opacity="0"/>
</linearGradient>
<linearGradient id="paint2_linear_1209_530" x1="125" y1="-24.5015" x2="125" y2="225.499" gradientUnits="userSpaceOnUse">
<stop stop-color="white" stop-opacity="0.3"/>
<stop offset="1" stop-color="white" stop-opacity="0"/>
</linearGradient>
</defs>
</svg>
