<svg width="32" height="32" viewBox="0 0 32 32" fill="none" xmlns="http://www.w3.org/2000/svg">
<path d="M15.9969 21.2499C13.4694 21.2499 11.3611 19.4603 10.8606 17.0825H2.4524C3.04673 23.9969 8.84614 29.422 15.9093 29.422C22.9724 29.422 28.7781 23.9969 29.3662 17.0825H21.1331C20.6327 19.4666 18.5243 21.2499 15.9969 21.2499Z" fill="white"/>
<path d="M18.9998 29.0716C24.6053 27.7575 28.8657 22.9582 29.3662 17.0825H26.0504C25.7189 22.4138 22.9224 26.9316 18.9998 29.0716Z" fill="#EDF2F7"/>
<path d="M19.0936 16.0001C19.0874 16.0001 19.0874 16.0001 19.0936 16.0001C19.0874 15.6184 19.0186 15.2554 18.8934 14.9175C18.4555 13.7412 17.3232 12.9089 15.9969 12.9089C14.6706 12.9089 13.5382 13.7474 13.1003 14.9175C12.9752 15.2554 12.9064 15.6184 12.9064 16.0001H12.9126C12.9126 16.3818 12.9814 16.7447 13.1065 17.0826C13.5445 18.259 14.6768 19.0912 16.0031 19.0912C17.3294 19.0912 18.4618 18.2527 18.8997 17.0826C19.0248 16.7509 19.0936 16.3818 19.0936 16.0001Z" fill="white"/>
<path d="M16.0031 10.7565C18.5306 10.7565 20.6389 12.5461 21.1394 14.9238H29.5476C28.9533 8.00323 23.1539 2.57812 16.0845 2.57812C9.01505 2.57812 3.2219 8.00323 2.62757 14.9176H10.8669C11.3674 12.5398 13.4757 10.7565 16.0031 10.7565Z" fill="#C53030"/>
<path d="M26.0504 14.9176H29.5413C29.0283 8.94184 24.624 4.07363 18.8747 2.86597C22.8661 4.97469 25.7126 9.53628 26.0504 14.9176Z" fill="#9B2C2C"/>
<path d="M16.0845 2.57802C23.1539 2.57802 28.9533 8.00313 29.5413 14.9175H21.1331C20.6326 12.5397 18.5243 10.7501 15.9969 10.7501C13.4694 10.7501 11.3611 12.5397 10.8606 14.9175H2.62757C3.2219 8.00313 9.02131 2.57802 16.0845 2.57802ZM18.8934 14.9175C19.0186 15.2554 19.0874 15.6183 19.0874 16H19.0936C19.0936 16.3817 19.0248 16.7446 18.8997 17.0825C18.4618 18.2589 17.3294 19.0911 16.0031 19.0911C14.6768 19.0911 13.5445 18.2526 13.1065 17.0825C12.9814 16.7446 12.9126 16.3817 12.9126 16H12.9064C12.9064 15.6183 12.9752 15.2554 13.1003 14.9175C13.5382 13.7411 14.6706 12.9089 15.9969 12.9089C17.3232 12.9089 18.4555 13.7474 18.8934 14.9175ZM15.9093 29.4282C8.83988 29.4282 3.04047 24.0031 2.45239 17.0888H10.8606C11.3611 19.4666 13.4694 21.2562 15.9969 21.2562C18.5243 21.2562 20.6326 19.4666 21.1331 17.0888H29.3724C28.7781 23.9969 22.9787 29.4282 15.9093 29.4282ZM15.9969 0C7.16325 0 0 7.16465 0 16C0 24.8354 7.16325 32 15.9969 32C24.8305 32 32 24.8416 32 16C32 7.15839 24.8368 0 15.9969 0Z" fill="black"/>
</svg>
