<svg width="22" height="22" viewBox="0 0 22 22" fill="none" xmlns="http://www.w3.org/2000/svg">
<path d="M11 0C12.4445 0 13.8749 0.284523 15.2095 0.837325C16.5441 1.39013 17.7567 2.20038 18.7782 3.22183C19.7996 4.24327 20.6099 5.4559 21.1627 6.79048C21.7155 8.12506 22 9.55546 22 11C22 13.9174 20.8411 16.7153 18.7782 18.7782C16.7153 20.8411 13.9174 22 11 22C9.55546 22 8.12506 21.7155 6.79048 21.1627C5.4559 20.6099 4.24327 19.7996 3.22183 18.7782C1.15893 16.7153 0 13.9174 0 11C0 8.08262 1.15893 5.28473 3.22183 3.22183C5.28473 1.15893 8.08262 0 11 0ZM11 2.2C6.512 2.2 2.805 5.555 2.266 9.9H6.743C7.227 7.997 8.954 6.6 11 6.6C13.046 6.6 14.773 7.997 15.257 9.9H19.734C19.195 5.555 15.488 2.2 11 2.2ZM11 19.8C15.488 19.8 19.195 16.445 19.734 12.1H15.257C14.773 14.003 13.046 15.4 11 15.4C8.954 15.4 7.227 14.003 6.743 12.1H2.266C2.805 16.445 6.512 19.8 11 19.8ZM11 8.8C10.4165 8.8 9.85695 9.03179 9.44437 9.44437C9.03179 9.85695 8.8 10.4165 8.8 11C8.8 11.5835 9.03179 12.1431 9.44437 12.5556C9.85695 12.9682 10.4165 13.2 11 13.2C11.5835 13.2 12.1431 12.9682 12.5556 12.5556C12.9682 12.1431 13.2 11.5835 13.2 11C13.2 10.4165 12.9682 9.85695 12.5556 9.44437C12.1431 9.03179 11.5835 8.8 11 8.8Z" fill="#2D3748"/>
</svg>
